<mxfile host="app.diagrams.net" agent="Mozilla/5.0 (Windows NT 10.0; Win64; x64) AppleWebKit/537.36 (KHTML, like Gecko) Chrome/136.0.0.0 Safari/537.36" version="26.1.1">
  <diagram name="CheckMyGrade_OOD" id="tM23Lp86ULRrY1yMB6Ze">
    <mxGraphModel dx="2474" dy="1982" grid="0" gridSize="10" guides="1" tooltips="1" connect="1" arrows="1" fold="1" page="0" pageScale="1" pageWidth="850" pageHeight="1100" math="0" shadow="0">
      <root>
        <mxCell id="0" />
        <mxCell id="1" parent="0" />
        <mxCell id="EuNey9zRJ1brWeuolO-J-1" value="&lt;div&gt;User&lt;/div&gt;&lt;div&gt;--------------------------&lt;/div&gt;&lt;div&gt;- email&amp;nbsp;&amp;nbsp;&lt;/div&gt;&lt;div&gt;- name&amp;nbsp;&amp;nbsp;&lt;/div&gt;&lt;div&gt;- role&amp;nbsp;&amp;nbsp;&lt;/div&gt;&lt;div&gt;--------------------------&lt;/div&gt;&lt;div&gt;+ login()&amp;nbsp;&amp;nbsp;&lt;/div&gt;&lt;div&gt;+ change_password()&lt;/div&gt;" style="rounded=0;whiteSpace=wrap;html=1;" vertex="1" parent="1">
          <mxGeometry x="150" y="-398" width="213.5" height="130" as="geometry" />
        </mxCell>
        <mxCell id="EuNey9zRJ1brWeuolO-J-2" value="&lt;div&gt;&lt;div&gt;Student&lt;/div&gt;&lt;div&gt;--------------------------&lt;/div&gt;&lt;div&gt;- student_id&amp;nbsp;&amp;nbsp;&lt;/div&gt;&lt;div&gt;- course_id&amp;nbsp;&amp;nbsp;&lt;/div&gt;&lt;div&gt;- grade&amp;nbsp;&amp;nbsp;&lt;/div&gt;&lt;div&gt;- marks&amp;nbsp;&amp;nbsp;&lt;/div&gt;&lt;div&gt;--------------------------&lt;/div&gt;&lt;div&gt;+ view_details()&amp;nbsp;&amp;nbsp;&lt;/div&gt;&lt;div&gt;+ view_reports()&lt;/div&gt;&lt;/div&gt;" style="rounded=0;whiteSpace=wrap;html=1;" vertex="1" parent="1">
          <mxGeometry x="-134" y="-198" width="164" height="193" as="geometry" />
        </mxCell>
        <mxCell id="EuNey9zRJ1brWeuolO-J-28" value="" style="edgeStyle=none;curved=1;rounded=0;orthogonalLoop=1;jettySize=auto;html=1;fontSize=12;startSize=8;endSize=8;" edge="1" parent="1" source="EuNey9zRJ1brWeuolO-J-3" target="EuNey9zRJ1brWeuolO-J-1">
          <mxGeometry relative="1" as="geometry" />
        </mxCell>
        <mxCell id="EuNey9zRJ1brWeuolO-J-34" value="IS-A" style="edgeLabel;html=1;align=center;verticalAlign=middle;resizable=0;points=[];fontSize=12;" vertex="1" connectable="0" parent="EuNey9zRJ1brWeuolO-J-28">
          <mxGeometry x="-0.046" relative="1" as="geometry">
            <mxPoint as="offset" />
          </mxGeometry>
        </mxCell>
        <mxCell id="EuNey9zRJ1brWeuolO-J-3" value="&lt;div&gt;&lt;div&gt;Professor&lt;/div&gt;&lt;div&gt;--------------------------&lt;/div&gt;&lt;div&gt;- professor_id&amp;nbsp;&amp;nbsp;&lt;/div&gt;&lt;div&gt;- rank&amp;nbsp;&amp;nbsp;&lt;/div&gt;&lt;div&gt;- courses&amp;nbsp;&amp;nbsp;&lt;/div&gt;&lt;div&gt;--------------------------&lt;/div&gt;&lt;div&gt;+ add_marks()&amp;nbsp;&amp;nbsp;&lt;/div&gt;&lt;div&gt;+ modify_marks()&amp;nbsp;&amp;nbsp;&lt;/div&gt;&lt;div&gt;+ delete_marks()&amp;nbsp;&amp;nbsp;&lt;/div&gt;&lt;div&gt;+ view_reports()&lt;/div&gt;&lt;/div&gt;" style="rounded=0;whiteSpace=wrap;html=1;" vertex="1" parent="1">
          <mxGeometry x="158.25" y="-189" width="197" height="175" as="geometry" />
        </mxCell>
        <mxCell id="EuNey9zRJ1brWeuolO-J-4" value="&lt;div&gt;&lt;div&gt;Admin&lt;/div&gt;&lt;div&gt;--------------------------&lt;/div&gt;&lt;div&gt;(inherits User)&amp;nbsp;&amp;nbsp;&lt;/div&gt;&lt;div&gt;--------------------------&lt;/div&gt;&lt;div&gt;+ add_student()&amp;nbsp;&amp;nbsp;&lt;/div&gt;&lt;div&gt;+ delete_student()&amp;nbsp;&amp;nbsp;&lt;/div&gt;&lt;div&gt;+ modify_student()&amp;nbsp;&amp;nbsp;&lt;/div&gt;&lt;div&gt;+ add_professor()&amp;nbsp;&amp;nbsp;&lt;/div&gt;&lt;div&gt;+ modify_course()&amp;nbsp;&amp;nbsp;&lt;/div&gt;&lt;div&gt;+ view_all()&lt;/div&gt;&lt;/div&gt;" style="rounded=0;whiteSpace=wrap;html=1;" vertex="1" parent="1">
          <mxGeometry x="449" y="-198" width="193" height="190" as="geometry" />
        </mxCell>
        <mxCell id="EuNey9zRJ1brWeuolO-J-27" value="" style="edgeStyle=none;curved=1;rounded=0;orthogonalLoop=1;jettySize=auto;html=1;fontSize=12;startSize=8;endSize=8;" edge="1" parent="1" source="EuNey9zRJ1brWeuolO-J-5" target="EuNey9zRJ1brWeuolO-J-3">
          <mxGeometry relative="1" as="geometry" />
        </mxCell>
        <mxCell id="EuNey9zRJ1brWeuolO-J-32" value="HAS-A" style="edgeLabel;html=1;align=center;verticalAlign=middle;resizable=0;points=[];fontSize=12;" vertex="1" connectable="0" parent="EuNey9zRJ1brWeuolO-J-27">
          <mxGeometry x="0.1691" relative="1" as="geometry">
            <mxPoint as="offset" />
          </mxGeometry>
        </mxCell>
        <mxCell id="EuNey9zRJ1brWeuolO-J-5" value="&lt;div&gt;&lt;div&gt;Course&lt;/div&gt;&lt;div&gt;--------------------------&lt;/div&gt;&lt;div&gt;- course_id&amp;nbsp;&amp;nbsp;&lt;/div&gt;&lt;div&gt;- course_name&amp;nbsp;&amp;nbsp;&lt;/div&gt;&lt;div&gt;- credits&amp;nbsp;&amp;nbsp;&lt;/div&gt;&lt;div&gt;- description&amp;nbsp;&amp;nbsp;&lt;/div&gt;&lt;div&gt;- professor_id&amp;nbsp;&amp;nbsp;&lt;/div&gt;&lt;div&gt;--------------------------&lt;/div&gt;&lt;div&gt;(no public methods â€” data holder class)&lt;/div&gt;&lt;/div&gt;" style="rounded=0;whiteSpace=wrap;html=1;" vertex="1" parent="1">
          <mxGeometry x="133.25" y="111" width="247" height="164" as="geometry" />
        </mxCell>
        <mxCell id="EuNey9zRJ1brWeuolO-J-16" value="" style="edgeStyle=segmentEdgeStyle;endArrow=classic;html=1;curved=0;rounded=0;endSize=8;startSize=8;sourcePerimeterSpacing=0;targetPerimeterSpacing=0;fontSize=12;exitX=0.5;exitY=0;exitDx=0;exitDy=0;" edge="1" parent="1">
          <mxGeometry width="140" relative="1" as="geometry">
            <mxPoint x="-51" y="-198" as="sourcePoint" />
            <mxPoint x="150" y="-342" as="targetPoint" />
            <Array as="points">
              <mxPoint x="-51" y="-342" />
            </Array>
          </mxGeometry>
        </mxCell>
        <mxCell id="EuNey9zRJ1brWeuolO-J-33" value="IS-A" style="edgeLabel;html=1;align=center;verticalAlign=middle;resizable=0;points=[];fontSize=12;" vertex="1" connectable="0" parent="EuNey9zRJ1brWeuolO-J-16">
          <mxGeometry x="-0.2816" y="1" relative="1" as="geometry">
            <mxPoint as="offset" />
          </mxGeometry>
        </mxCell>
        <mxCell id="EuNey9zRJ1brWeuolO-J-20" value="" style="edgeStyle=segmentEdgeStyle;endArrow=classic;html=1;curved=0;rounded=0;endSize=8;startSize=8;sourcePerimeterSpacing=0;targetPerimeterSpacing=0;fontSize=12;" edge="1" parent="1">
          <mxGeometry width="140" relative="1" as="geometry">
            <mxPoint x="482" y="-197" as="sourcePoint" />
            <mxPoint x="363.5" y="-346" as="targetPoint" />
            <Array as="points">
              <mxPoint x="479" y="-346" />
            </Array>
          </mxGeometry>
        </mxCell>
        <mxCell id="EuNey9zRJ1brWeuolO-J-35" value="IS-A" style="edgeLabel;html=1;align=center;verticalAlign=middle;resizable=0;points=[];fontSize=12;" vertex="1" connectable="0" parent="EuNey9zRJ1brWeuolO-J-20">
          <mxGeometry x="-0.438" y="-1" relative="1" as="geometry">
            <mxPoint as="offset" />
          </mxGeometry>
        </mxCell>
        <mxCell id="EuNey9zRJ1brWeuolO-J-21" value="" style="edgeStyle=segmentEdgeStyle;endArrow=classic;html=1;curved=0;rounded=0;endSize=8;startSize=8;sourcePerimeterSpacing=0;targetPerimeterSpacing=0;fontSize=12;exitX=0.5;exitY=0;exitDx=0;exitDy=0;" edge="1" parent="1">
          <mxGeometry width="140" relative="1" as="geometry">
            <mxPoint x="-50" y="-5" as="sourcePoint" />
            <mxPoint x="132" y="196" as="targetPoint" />
            <Array as="points">
              <mxPoint x="-52" y="-5" />
              <mxPoint x="-52" y="196" />
            </Array>
          </mxGeometry>
        </mxCell>
        <mxCell id="EuNey9zRJ1brWeuolO-J-31" value="HAS-A" style="edgeLabel;html=1;align=center;verticalAlign=middle;resizable=0;points=[];fontSize=12;" vertex="1" connectable="0" parent="EuNey9zRJ1brWeuolO-J-21">
          <mxGeometry x="-0.2716" relative="1" as="geometry">
            <mxPoint as="offset" />
          </mxGeometry>
        </mxCell>
        <mxCell id="EuNey9zRJ1brWeuolO-J-36" value="CheckMyGrade App" style="text;html=1;align=center;verticalAlign=middle;resizable=0;points=[];autosize=1;strokeColor=none;fillColor=none;fontSize=16;fontStyle=1" vertex="1" parent="1">
          <mxGeometry x="176.25" y="-458" width="161" height="31" as="geometry" />
        </mxCell>
      </root>
    </mxGraphModel>
  </diagram>
</mxfile>
